<svg width="24" height="24" viewBox="0 0 24 24" fill="none" xmlns="http://www.w3.org/2000/svg">
<path d="M12.8067 22.6671H11.1934C10.6516 22.6649 10.1308 22.4573 9.73609 22.0861C9.34139 21.7149 9.10218 21.2078 9.06674 20.6671L9.00398 19.7963C8.97702 19.4223 8.74051 19.0996 8.40805 18.9262C8.01501 18.7213 7.63985 18.483 7.28674 18.2138L5.95341 18.8805C5.46774 19.1146 4.91161 19.1568 4.3962 18.9985C3.88079 18.8403 3.44409 18.4934 3.17341 18.0271L2.36674 16.6271C2.10005 16.1578 2.02056 15.6051 2.14419 15.0797C2.26782 14.5542 2.58544 14.0949 3.03341 13.7938L4.26007 12.9605C4.18065 12.3185 4.18065 11.6691 4.26007 11.0271L3.01341 10.2005C2.56544 9.89934 2.24782 9.44003 2.12419 8.9146C2.00056 8.38917 2.08005 7.83643 2.34674 7.36714L3.16674 6.00047C3.43197 5.52839 3.8663 5.1744 4.38219 5.00986C4.89808 4.84532 5.45716 4.88246 5.94674 5.11381L7.28007 5.78047C7.79504 5.38746 8.35719 5.06047 8.95341 4.80714L9.06007 3.33381C9.09552 2.79315 9.33472 2.28606 9.72942 1.91487C10.1241 1.54368 10.6449 1.33602 11.1867 1.33381H12.8067C13.3486 1.33602 13.8694 1.54368 14.2641 1.91487C14.6588 2.28606 14.898 2.79315 14.9334 3.33381L15.0401 4.81381C15.6363 5.0672 16.1984 5.39418 16.7134 5.78714L18.0467 5.12047C18.5324 4.88636 19.0885 4.8442 19.604 5.0024C20.1194 5.16061 20.5561 5.50753 20.8267 5.97381L21.6334 7.37381C21.9001 7.8431 21.9796 8.39584 21.856 8.92127C21.7323 9.4467 21.4147 9.906 20.9667 10.2071L19.7401 11.0405C19.8195 11.6825 19.8195 12.3318 19.7401 12.9738L20.9667 13.8071C21.4147 14.1083 21.7323 14.5676 21.856 15.093C21.9796 15.6184 21.9001 16.1712 21.6334 16.6405L20.8267 18.0405C20.5561 18.5067 20.1194 18.8537 19.604 19.0119C19.0885 19.1701 18.5324 19.1279 18.0467 18.8938L16.7134 18.2271C16.1982 18.6199 15.6361 18.9468 15.0401 19.2005L14.9401 20.6671C14.9046 21.2089 14.6644 21.717 14.2683 22.0884C13.8722 22.4597 13.3497 22.6666 12.8067 22.6671ZM7.37341 16.6671C7.54254 16.668 7.70576 16.7295 7.83341 16.8405C8.43286 17.3539 9.12229 17.7517 9.86674 18.0138C9.99732 18.06 10.1116 18.1433 10.1957 18.2534C10.2797 18.3635 10.3299 18.4957 10.3401 18.6338L10.4801 20.5605C10.4919 20.7403 10.5713 20.909 10.7024 21.0327C10.8335 21.1564 11.0065 21.2258 11.1867 21.2271H12.8067C12.987 21.2258 13.16 21.1564 13.2911 21.0327C13.4222 20.909 13.5016 20.7403 13.5134 20.5605L13.6534 18.6671C13.6636 18.529 13.7138 18.3968 13.7978 18.2867C13.8819 18.1766 13.9962 18.0934 14.1267 18.0471C14.8712 17.785 15.5606 17.3872 16.1601 16.8738C16.2654 16.7839 16.3945 16.7265 16.5319 16.7088C16.6692 16.691 16.8087 16.7136 16.9334 16.7738L18.6667 17.6071C18.828 17.6881 19.014 17.7049 19.1872 17.6542C19.3604 17.6035 19.5079 17.489 19.6001 17.3338L20.4067 15.9338C20.4972 15.7782 20.5254 15.5942 20.4859 15.4186C20.4463 15.243 20.3418 15.0889 20.1934 14.9871L18.5934 13.9005C18.4789 13.8225 18.3896 13.713 18.3363 13.5851C18.283 13.4573 18.2681 13.3167 18.2934 13.1805C18.4372 12.4026 18.4372 11.605 18.2934 10.8271C18.2681 10.691 18.283 10.5504 18.3363 10.4225C18.3896 10.2946 18.4789 10.1851 18.5934 10.1071L20.1934 9.02047C20.3418 8.91869 20.4463 8.76457 20.4859 8.58901C20.5254 8.41344 20.4972 8.22941 20.4067 8.07381L19.6001 6.66714C19.5079 6.51197 19.3604 6.39749 19.1872 6.34676C19.014 6.29604 18.828 6.31285 18.6667 6.39381L16.9334 7.24047C16.8087 7.30066 16.6692 7.32325 16.5319 7.30549C16.3945 7.28774 16.2654 7.2304 16.1601 7.14047C15.561 6.62658 14.8715 6.22869 14.1267 5.96714C13.9942 5.92001 13.8785 5.83475 13.7943 5.72205C13.7101 5.60936 13.6611 5.47428 13.6534 5.33381L13.5134 3.40714C13.5016 3.2273 13.4222 3.05859 13.2911 2.93491C13.16 2.81124 12.987 2.74177 12.8067 2.74047H11.1934C11.0132 2.74177 10.8401 2.81124 10.709 2.93491C10.5779 3.05859 10.4985 3.2273 10.4867 3.40714L10.3467 5.33381C10.3374 5.4722 10.2875 5.60478 10.2034 5.71503C10.1192 5.82528 10.0044 5.90832 9.87341 5.95381C9.12845 6.21793 8.439 6.61804 7.84007 7.13381C7.73479 7.22373 7.6056 7.28107 7.46828 7.29883C7.33096 7.31658 7.19144 7.29399 7.06674 7.23381L5.33341 6.39381C5.17212 6.31285 4.98613 6.29604 4.81294 6.34676C4.63975 6.39749 4.49222 6.51197 4.40007 6.66714L3.59341 8.06714C3.50364 8.22352 3.47643 8.4081 3.51724 8.58374C3.55806 8.75937 3.66388 8.91304 3.81341 9.01381L5.41341 10.1005C5.52792 10.1784 5.61726 10.288 5.67053 10.4158C5.72381 10.5437 5.7387 10.6843 5.71341 10.8205C5.57029 11.5961 5.57029 12.3915 5.71341 13.1671C5.7387 13.3033 5.72381 13.4439 5.67053 13.5718C5.61726 13.6996 5.52792 13.8092 5.41341 13.8871L3.81341 14.9738C3.66388 15.0746 3.55806 15.2282 3.51724 15.4039C3.47643 15.5795 3.50364 15.7641 3.59341 15.9205L4.40007 17.3338C4.49222 17.489 4.63975 17.6035 4.81294 17.6542C4.98613 17.7049 5.17212 17.6881 5.33341 17.6071L7.07341 16.7605C7.16523 16.7075 7.26771 16.6756 7.37341 16.6671Z" fill="#FC8686"/>
<path d="M15.56 15.5533C15.5563 15.9447 15.238 16.2667 14.8467 16.2667V16.2667C14.4527 16.2667 14.1333 15.9473 14.1333 15.5533V15.5533C14.1333 15.3641 14.0582 15.1827 13.9244 15.0489C13.7906 14.9152 13.6092 14.84 13.42 14.84H10.58C10.3908 14.84 10.2094 14.9152 10.0756 15.0489C9.94182 15.1827 9.86667 15.3641 9.86667 15.5533V15.5533C9.86667 15.9455 9.54879 16.2667 9.15667 16.2667V16.2667C8.76454 16.2667 8.44667 15.9455 8.44667 15.5533V15.5533C8.44667 14.9875 8.67143 14.4449 9.07151 14.0448C9.47158 13.6448 10.0142 13.42 10.58 13.42H13.4267C13.9925 13.42 14.5351 13.6448 14.9352 14.0448C15.3352 14.4449 15.56 14.9875 15.56 15.5533V15.5533Z" fill="#FC8686"/>
<path d="M12.0001 7.01953C11.4371 7.01953 10.8867 7.18649 10.4186 7.49928C9.95042 7.81208 9.58556 8.25667 9.3701 8.77683C9.15464 9.29699 9.09827 9.86936 9.20811 10.4216C9.31795 10.9738 9.58907 11.481 9.98718 11.8791C10.3853 12.2772 10.8925 12.5483 11.4447 12.6582C11.9969 12.768 12.5693 12.7116 13.0894 12.4962C13.6096 12.2807 14.0542 11.9159 14.367 11.4477C14.6798 10.9796 14.8467 10.4292 14.8467 9.8662C14.8467 9.11122 14.5468 8.38715 14.013 7.8533C13.4791 7.31945 12.7551 7.01953 12.0001 7.01953ZM12.0001 11.2862C11.7192 11.2862 11.4447 11.2029 11.2112 11.0469C10.9776 10.8909 10.7956 10.6691 10.6882 10.4096C10.5807 10.1501 10.5526 9.86462 10.6074 9.58917C10.6622 9.31372 10.7974 9.0607 10.996 8.86211C11.1946 8.66352 11.4476 8.52827 11.723 8.47348C11.9985 8.41869 12.284 8.44681 12.5435 8.55429C12.803 8.66177 13.0247 8.84377 13.1808 9.07729C13.3368 9.31081 13.4201 9.58535 13.4201 9.8662C13.4183 10.2423 13.2682 10.6024 13.0022 10.8684C12.7363 11.1343 12.3761 11.2844 12.0001 11.2862Z" fill="#FC8686"/>
</svg>
