<svg width="24" height="24" viewBox="0 0 24 24" fill="none" xmlns="http://www.w3.org/2000/svg">
<path d="M10.7999 2.40002C9.52686 2.40002 8.30596 2.90574 7.40579 3.80591C6.50562 4.70609 5.9999 5.92699 5.9999 7.20002C5.9999 8.47306 6.50562 9.69396 7.40579 10.5941C8.30596 11.4943 9.52686 12 10.7999 12C12.0729 12 13.2938 11.4943 14.194 10.5941C15.0942 9.69396 15.5999 8.47306 15.5999 7.20002C15.5999 5.92699 15.0942 4.70609 14.194 3.80591C13.2938 2.90574 12.0729 2.40002 10.7999 2.40002ZM7.1999 7.20002C7.1999 6.24525 7.57919 5.32957 8.25432 4.65444C8.92945 3.97931 9.84512 3.60002 10.7999 3.60002C11.7547 3.60002 12.6704 3.97931 13.3455 4.65444C14.0206 5.32957 14.3999 6.24525 14.3999 7.20002C14.3999 8.1548 14.0206 9.07048 13.3455 9.74561C12.6704 10.4207 11.7547 10.8 10.7999 10.8C9.84512 10.8 8.92945 10.4207 8.25432 9.74561C7.57919 9.07048 7.1999 8.1548 7.1999 7.20002ZM4.8107 13.2C4.49467 13.1988 4.18149 13.2599 3.88913 13.3799C3.59677 13.5 3.33099 13.6765 3.10701 13.8995C2.88304 14.1225 2.70528 14.3875 2.58394 14.6793C2.4626 14.9711 2.40006 15.284 2.3999 15.6C2.3999 17.6292 3.3995 19.1592 4.9619 20.1564C6.5003 21.1368 8.5739 21.6 10.7999 21.6C11.2919 21.6 11.7791 21.5772 12.2519 21.5316C11.9656 21.1751 11.717 20.7899 11.5103 20.382C11.2775 20.394 11.0399 20.4 10.7999 20.4C8.7179 20.4 6.8915 19.9632 5.6075 19.1436C4.3475 18.3396 3.5999 17.172 3.5999 15.6C3.5999 14.9364 4.1375 14.4 4.8107 14.4H11.5187C11.7395 13.9704 12.0047 13.5684 12.3083 13.2H4.8119H4.8107ZM12.7619 16.704C13.0718 16.6248 13.3627 16.4844 13.6175 16.2911C13.8724 16.0978 14.086 15.8555 14.2459 15.5785C14.4057 15.3014 14.5086 14.9952 14.5485 14.6779C14.5883 14.3605 14.5643 14.0384 14.4779 13.7304L14.2919 13.062C14.5967 12.828 14.9267 12.6276 15.2771 12.4656L15.6827 12.8952C15.907 13.1332 16.1775 13.3228 16.4777 13.4525C16.7779 13.5821 17.1014 13.6491 17.4284 13.6492C17.7554 13.6493 18.079 13.5826 18.3793 13.4531C18.6796 13.3237 18.9503 13.1342 19.1747 12.8964L19.5635 12.4836C19.9211 12.6516 20.2571 12.8616 20.5655 13.1052L20.4143 13.6128C20.3207 13.9261 20.2921 14.2551 20.3302 14.5798C20.3683 14.9045 20.4723 15.218 20.6359 15.5011C20.7995 15.7841 21.0193 16.0307 21.2816 16.2258C21.5439 16.4209 21.8433 16.5604 22.1615 16.6356L22.5803 16.734C22.6284 17.1392 22.6325 17.5484 22.5923 17.9544L22.0403 18.0948C21.7302 18.1739 21.439 18.3143 21.184 18.5076C20.9289 18.7009 20.7151 18.9433 20.5551 19.2205C20.395 19.4977 20.2921 19.8041 20.2523 20.1216C20.2124 20.4392 20.2365 20.7615 20.3231 21.0696L20.5103 21.7368C20.2046 21.9718 19.8738 22.1723 19.5239 22.3344L19.1183 21.9048C18.8941 21.667 18.6237 21.4774 18.3237 21.3478C18.0236 21.2181 17.7003 21.1511 17.3734 21.1509C17.0466 21.1507 16.7231 21.2172 16.4229 21.3465C16.1227 21.4757 15.852 21.6649 15.6275 21.9024L15.2375 22.3152C14.8809 22.1468 14.5448 21.9383 14.2355 21.6936L14.3879 21.1872C14.4817 20.8739 14.5105 20.5447 14.4725 20.2199C14.4344 19.8951 14.3304 19.5814 14.1668 19.2982C14.0032 19.015 13.7834 18.7683 13.521 18.5731C13.2585 18.3779 12.959 18.2384 12.6407 18.1632L12.2207 18.0648C12.1728 17.66 12.1688 17.2513 12.2087 16.8456L12.7619 16.704ZM18.5999 17.4C18.5999 17.0818 18.4735 16.7765 18.2484 16.5515C18.0234 16.3265 17.7182 16.2 17.3999 16.2C17.0816 16.2 16.7764 16.3265 16.5514 16.5515C16.3263 16.7765 16.1999 17.0818 16.1999 17.4C16.1999 17.7183 16.3263 18.0235 16.5514 18.2486C16.7764 18.4736 17.0816 18.6 17.3999 18.6C17.7182 18.6 18.0234 18.4736 18.2484 18.2486C18.4735 18.0235 18.5999 17.7183 18.5999 17.4Z" fill="#FC8686"/>
</svg>
