<svg width="18" height="18" viewBox="0 0 18 18" fill="none" xmlns="http://www.w3.org/2000/svg">
<g opacity="0.7">
<path d="M9 6.95526C8.34901 6.95526 7.72469 7.21386 7.26437 7.67418C6.80406 8.13449 6.54545 8.75882 6.54545 9.4098C6.54545 10.0608 6.80406 10.6851 7.26437 11.1454C7.72469 11.6057 8.34901 11.8643 9 11.8643C9.65099 11.8643 10.2753 11.6057 10.7356 11.1454C11.1959 10.6851 11.4545 10.0608 11.4545 9.4098C11.4545 8.75882 11.1959 8.13449 10.7356 7.67418C10.2753 7.21386 9.65099 6.95526 9 6.95526ZM9 13.5007C7.91502 13.5007 6.87448 13.0697 6.10729 12.3025C5.3401 11.5353 4.90909 10.4948 4.90909 9.4098C4.90909 8.32482 5.3401 7.28429 6.10729 6.51709C6.87448 5.7499 7.91502 5.31889 9 5.31889C10.085 5.31889 11.1255 5.7499 11.8927 6.51709C12.6599 7.28429 13.0909 8.32482 13.0909 9.4098C13.0909 10.4948 12.6599 11.5353 11.8927 12.3025C11.1255 13.0697 10.085 13.5007 9 13.5007ZM9 3.27344C4.90909 3.27344 1.41545 5.81798 0 9.4098C1.41545 13.0016 4.90909 15.5462 9 15.5462C13.0909 15.5462 16.5845 13.0016 18 9.4098C16.5845 5.81798 13.0909 3.27344 9 3.27344Z" fill="#9D9FA0"/>
</g>
</svg>
