<svg width="18" height="18" viewBox="0 0 18 18" fill="none" xmlns="http://www.w3.org/2000/svg">
<path d="M8.86091 6.63236L11.4545 9.17699V9.04815C11.4545 8.40744 11.1959 7.79298 10.7356 7.33993C10.2753 6.88688 9.65099 6.63236 9 6.63236H8.86091ZM5.34273 7.27657L6.61091 8.52473C6.57 8.69383 6.54545 8.86294 6.54545 9.04815C6.54545 9.68886 6.80406 10.3033 7.26437 10.7564C7.72469 11.2094 8.34901 11.4639 9 11.4639C9.18 11.4639 9.36 11.4398 9.53182 11.3995L10.8 12.6477C10.2518 12.9134 9.64636 13.0745 9 13.0745C7.91502 13.0745 6.87449 12.6503 6.10729 11.8952C5.3401 11.1401 4.90909 10.116 4.90909 9.04815C4.90909 8.41199 5.07273 7.8161 5.34273 7.27657ZM0.818182 2.82347L2.68364 4.65947L3.05182 5.02183C1.70182 6.06868 0.638182 7.43762 0 9.04815C1.41545 12.5833 4.90909 15.0876 9 15.0876C10.2682 15.0876 11.4791 14.846 12.5836 14.4112L12.9355 14.7494L15.3245 17.1008L16.3636 16.0781L1.85727 1.80078M9 5.02183C10.085 5.02183 11.1255 5.44603 11.8927 6.20111C12.6599 6.95619 13.0909 7.9803 13.0909 9.04815C13.0909 9.56352 12.9845 10.0628 12.7964 10.5137L15.1936 12.8731C16.4209 11.8666 17.4027 10.5459 18 9.04815C16.5845 5.51304 13.0909 3.00868 9 3.00868C7.85455 3.00868 6.75818 3.20999 5.72727 3.57236L7.50273 5.30368C7.96909 5.12652 8.46818 5.02183 9 5.02183Z" fill="#838383"/>
</svg>
