<svg width="44" height="44" viewBox="0 0 44 44" fill="none" xmlns="http://www.w3.org/2000/svg">
<path d="M27.9999 23.7144C28.6819 23.7144 29.3359 23.9853 29.8182 24.4675C30.3004 24.9497 30.5713 25.6038 30.5713 26.2858V26.8986C30.5713 29.9646 26.9628 32.2858 21.9999 32.2858C17.037 32.2858 13.4285 30.0855 13.4285 26.8986V26.2858C13.4285 25.6038 13.6994 24.9497 14.1816 24.4675C14.6639 23.9853 15.3179 23.7144 15.9999 23.7144H27.9999ZM27.9999 25.0001H15.9999C15.6804 25.0001 15.3724 25.119 15.1358 25.3337C14.8992 25.5484 14.7511 25.8435 14.7202 26.1615L14.7142 26.2858V26.8986C14.7142 29.1906 17.619 31.0001 21.9999 31.0001C26.2222 31.0001 29.1613 29.1958 29.2813 27.0366L29.2856 26.8986V26.2858C29.2856 25.9663 29.1667 25.6583 28.952 25.4217C28.7373 25.1851 28.4422 25.037 28.1242 25.0061L27.9999 25.0001ZM21.9999 11.7144C22.6753 11.7144 23.344 11.8474 23.968 12.1058C24.5919 12.3643 25.1589 12.7431 25.6364 13.2207C26.114 13.6982 26.4928 14.2652 26.7513 14.8891C27.0097 15.5131 27.1428 16.1818 27.1428 16.8572C27.1428 17.5326 27.0097 18.2013 26.7513 18.8253C26.4928 19.4493 26.114 20.0162 25.6364 20.4938C25.1589 20.9713 24.5919 21.3501 23.968 21.6086C23.344 21.867 22.6753 22.0001 21.9999 22.0001C20.6359 22.0001 19.3278 21.4582 18.3633 20.4938C17.3989 19.5293 16.857 18.2212 16.857 16.8572C16.857 15.4932 17.3989 14.1851 18.3633 13.2207C19.3278 12.2562 20.6359 11.7144 21.9999 11.7144ZM21.9999 13.0001C20.9769 13.0001 19.9958 13.4064 19.2725 14.1298C18.5491 14.8532 18.1428 15.8342 18.1428 16.8572C18.1428 17.8802 18.5491 18.8613 19.2725 19.5846C19.9958 20.308 20.9769 20.7144 21.9999 20.7144C23.0229 20.7144 24.004 20.308 24.7273 19.5846C25.4507 18.8613 25.857 17.8802 25.857 16.8572C25.857 15.8342 25.4507 14.8532 24.7273 14.1298C24.004 13.4064 23.0229 13.0001 21.9999 13.0001Z" fill="#FC8686"/>
<rect width="44" height="44" rx="22" fill="#FC8686" fill-opacity="0.1"/>
</svg>
