<svg width="40" height="48" viewBox="0 0 40 48" fill="none" xmlns="http://www.w3.org/2000/svg">
<path d="M34 28C35.5913 28 37.1174 28.6321 38.2426 29.7574C39.3679 30.8826 40 32.4087 40 34V35.43C40 42.584 31.58 48 20 48C8.42 48 0 42.866 0 35.43V34C0 32.4087 0.632141 30.8826 1.75736 29.7574C2.88258 28.6321 4.4087 28 6 28H34ZM34 31H6C5.25455 31 4.53579 31.2775 3.98378 31.7785C3.43178 32.2795 3.08606 32.968 3.014 33.71L3 34V35.43C3 40.778 9.778 45 20 45C29.852 45 36.71 40.79 36.99 35.752L37 35.43V34C37 33.2545 36.7225 32.5358 36.2215 31.9838C35.7205 31.4318 35.032 31.0861 34.29 31.014L34 31ZM20 0C21.5759 -2.34822e-08 23.1363 0.310389 24.5922 0.913445C26.0481 1.5165 27.371 2.40042 28.4853 3.51472C29.5996 4.62902 30.4835 5.95189 31.0866 7.4078C31.6896 8.86371 32 10.4241 32 12C32 13.5759 31.6896 15.1363 31.0866 16.5922C30.4835 18.0481 29.5996 19.371 28.4853 20.4853C27.371 21.5996 26.0481 22.4835 24.5922 23.0866C23.1363 23.6896 21.5759 24 20 24C16.8174 24 13.7652 22.7357 11.5147 20.4853C9.26428 18.2348 8 15.1826 8 12C8 8.8174 9.26428 5.76515 11.5147 3.51472C13.7652 1.26428 16.8174 4.74244e-08 20 0ZM20 3C17.6131 3 15.3239 3.94821 13.636 5.63604C11.9482 7.32387 11 9.61305 11 12C11 14.3869 11.9482 16.6761 13.636 18.364C15.3239 20.0518 17.6131 21 20 21C22.3869 21 24.6761 20.0518 26.364 18.364C28.0518 16.6761 29 14.3869 29 12C29 9.61305 28.0518 7.32387 26.364 5.63604C24.6761 3.94821 22.3869 3 20 3Z" fill="#FC8686"/>
</svg>
