<svg width="24" height="24" viewBox="0 0 24 24" fill="none" xmlns="http://www.w3.org/2000/svg">
<rect x="1" y="1" width="22" height="22" rx="11" fill="#FC8686" stroke="white" stroke-width="2"/>
<path d="M16.1347 6.38258C16.3421 6.13448 16.618 5.99732 16.9043 6.00004C17.1906 6.00276 17.4649 6.14516 17.6692 6.39718C17.8736 6.6492 17.992 6.99113 17.9996 7.35082C18.0072 7.71052 17.9033 8.05984 17.7098 8.32508L11.8363 17.5565C11.7353 17.6933 11.6134 17.803 11.4779 17.8791C11.3424 17.9553 11.196 17.9963 11.0476 17.9998C10.8992 18.0032 10.7518 17.969 10.6141 17.8992C10.4765 17.8294 10.3514 17.7255 10.2465 17.5935L6.35139 12.6985C6.24292 12.5714 6.15592 12.4183 6.09558 12.2481C6.03523 12.0779 6.00279 11.8941 6.00017 11.7078C5.99756 11.5215 6.02483 11.3365 6.08035 11.1637C6.13588 10.9909 6.21853 10.834 6.32337 10.7022C6.42821 10.5705 6.55309 10.4666 6.69056 10.3968C6.82803 10.3271 6.97528 10.2928 7.12352 10.2961C7.27176 10.2994 7.41796 10.3401 7.55338 10.416C7.68881 10.4918 7.8107 10.6011 7.91177 10.7375L10.9943 14.6095L16.1067 6.42328C16.1159 6.40904 16.1258 6.39545 16.1362 6.38258H16.1347Z" fill="white"/>
</svg>
